<?xml version="1.0" standalone="no"?>
<!DOCTYPE svg PUBLIC "-//W3C//DTD SVG 20010904//EN"
 "http://www.w3.org/TR/2001/REC-SVG-20010904/DTD/svg10.dtd">
<svg version="1.0" xmlns="http://www.w3.org/2000/svg"
 width="1500.000000pt" height="1500.000000pt" viewBox="0 0 1500.000000 1500.000000"
 preserveAspectRatio="xMidYMid meet">
<metadata>
Created by potrace 1.11, written by Peter Selinger 2001-2013
</metadata>
<g transform="translate(0.000000,1500.000000) scale(0.100000,-0.100000)"
fill="#000000" stroke="none">
<path d="M7415 14121 c6 -11 3 -13 -13 -9 -12 3 -23 1 -26 -6 -3 -7 -5 -7 -5
2 -1 7 -5 11 -9 8 -5 -3 -64 -7 -133 -11 -134 -5 -222 -12 -309 -21 -30 -3
-71 -7 -90 -9 -36 -3 -99 -11 -180 -21 -25 -4 -58 -8 -75 -11 -16 -2 -43 -6
-60 -9 -16 -2 -43 -6 -60 -9 -39 -5 -115 -18 -161 -29 -12 -2 -38 -7 -59 -10
-20 -4 -40 -8 -44 -10 -3 -2 -24 -7 -46 -11 -41 -7 -66 -12 -75 -15 -3 -1 -9
-3 -15 -4 -8 -2 -32 -7 -97 -22 -5 -1 -9 -2 -10 -3 -2 -2 -14 -5 -28 -8 -31
-6 -35 -7 -90 -22 -25 -7 -54 -15 -65 -18 -30 -6 -37 -9 -68 -21 -15 -7 -31
-11 -35 -10 -4 1 -54 -14 -112 -32 -58 -19 -108 -33 -112 -32 -5 1 -8 -3 -8
-10 0 -6 -3 -9 -6 -6 -3 3 -35 -5 -72 -19 -37 -14 -71 -26 -77 -27 -5 -2 -21
-8 -35 -13 -14 -6 -28 -9 -33 -6 -4 2 -10 -2 -13 -11 -3 -8 -12 -12 -20 -9 -8
3 -14 0 -14 -5 0 -6 -9 -9 -19 -7 -11 2 -25 -3 -31 -11 -7 -7 -16 -11 -21 -8
-5 3 -9 0 -9 -5 0 -6 -3 -10 -7 -9 -10 3 -60 -16 -143 -54 -36 -17 -71 -31
-77 -31 -7 0 -13 -4 -13 -9 0 -4 -3 -7 -7 -6 -5 1 -34 -10 -65 -25 -31 -15
-62 -27 -67 -27 -6 0 -11 -5 -11 -11 0 -6 -6 -9 -12 -6 -7 2 -17 -2 -23 -9 -5
-7 -19 -14 -30 -16 -11 -2 -25 -10 -32 -18 -7 -8 -13 -12 -13 -8 0 4 -27 -9
-61 -28 -33 -18 -67 -34 -75 -34 -8 0 -14 -4 -14 -8 0 -5 -20 -17 -45 -28 -25
-10 -45 -21 -45 -24 0 -4 -22 -17 -50 -29 -28 -12 -50 -27 -50 -32 0 -6 -4 -8
-8 -5 -5 3 -20 -3 -33 -12 -43 -30 -131 -82 -140 -82 -5 0 -9 -4 -9 -10 0 -5
-7 -10 -15 -10 -8 0 -15 -4 -15 -10 0 -5 -7 -10 -15 -10 -8 0 -15 -3 -15 -8 0
-4 -14 -13 -30 -20 -17 -8 -36 -19 -43 -26 -6 -6 -42 -31 -79 -55 -38 -24 -68
-48 -68 -52 0 -5 -9 -9 -20 -9 -11 0 -20 -4 -20 -8 0 -5 -29 -29 -65 -53 -36
-24 -65 -47 -65 -51 0 -5 -7 -8 -15 -8 -8 0 -15 -4 -15 -10 0 -5 -8 -10 -17
-10 -9 0 -13 -3 -10 -7 4 -3 -7 -15 -24 -25 -34 -21 -50 -33 -85 -65 -13 -12
-24 -20 -24 -16 0 3 -9 -5 -20 -18 -10 -13 -19 -20 -20 -16 0 4 -16 -8 -35
-28 -20 -19 -38 -35 -41 -35 -3 0 -17 -11 -32 -24 -15 -14 -51 -47 -81 -73
-30 -26 -69 -63 -88 -80 -19 -18 -36 -33 -38 -33 -16 0 -449 -451 -499 -519
-13 -17 -26 -28 -29 -24 -4 3 -7 2 -7 -3 0 -11 -40 -62 -77 -100 -13 -13 -23
-27 -23 -31 0 -5 -14 -21 -31 -36 -17 -15 -28 -27 -25 -27 4 0 -27 -42 -69
-94 -41 -52 -75 -99 -75 -104 0 -6 -7 -12 -15 -16 -8 -3 -15 -12 -15 -21 0 -8
-3 -15 -7 -15 -5 0 -19 -18 -33 -40 -13 -22 -28 -40 -32 -40 -4 0 -8 -5 -8
-11 0 -6 -11 -25 -25 -43 -14 -18 -25 -37 -25 -43 0 -5 -9 -18 -20 -28 -11
-10 -20 -22 -20 -27 0 -5 -17 -32 -38 -61 -46 -64 -56 -81 -84 -134 -12 -24
-26 -43 -30 -43 -4 0 -8 -5 -8 -11 0 -6 -9 -23 -20 -39 -11 -15 -17 -30 -13
-34 3 -3 2 -6 -4 -6 -6 0 -23 -26 -39 -57 -16 -32 -33 -61 -39 -65 -7 -5 -7
-8 0 -8 6 0 1 -7 -9 -15 -11 -8 -16 -15 -12 -15 4 0 -2 -13 -14 -30 -12 -16
-18 -30 -15 -30 3 0 -3 -13 -15 -30 -12 -16 -18 -30 -13 -30 4 0 4 -4 -2 -8
-17 -12 -156 -302 -150 -312 2 -4 -5 -17 -16 -28 -11 -12 -17 -22 -14 -22 3 0
0 -10 -7 -22 -7 -13 -12 -25 -13 -28 -1 -18 -51 -130 -58 -130 -4 0 -5 -5 -2
-10 4 -6 2 -16 -3 -23 -15 -19 -53 -127 -44 -127 4 0 1 -4 -6 -9 -7 -4 -15
-17 -17 -27 -2 -10 -4 -19 -5 -19 -1 0 -3 -9 -5 -20 -2 -11 -9 -21 -15 -23 -5
-2 -8 -7 -5 -12 3 -4 -2 -24 -10 -44 -8 -20 -12 -36 -9 -36 4 0 1 -6 -5 -13
-6 -8 -8 -17 -4 -20 3 -4 1 -7 -5 -7 -7 0 -11 -3 -10 -7 0 -5 -1 -15 -4 -23
-24 -64 -87 -294 -83 -300 3 -5 1 -10 -5 -12 -5 -1 -11 -15 -12 -30 -1 -16 -6
-28 -10 -28 -4 0 -5 -7 -2 -15 4 -8 2 -15 -2 -15 -5 0 -10 -10 -10 -22 -1 -13
-5 -36 -9 -53 -4 -16 -8 -37 -10 -45 -2 -8 -4 -16 -5 -17 -4 -4 -6 -15 -15
-68 -10 -58 -10 -55 -18 -75 -3 -8 -8 -31 -11 -50 -3 -19 -8 -46 -11 -60 -4
-14 -8 -43 -10 -65 -2 -22 -5 -41 -6 -42 -1 -2 -3 -7 -4 -13 -1 -5 -3 -11 -5
-12 -1 -2 -3 -16 -5 -33 -7 -56 -14 -100 -19 -130 -4 -16 -9 -52 -11 -80 -3
-27 -7 -61 -10 -75 -3 -14 -8 -59 -11 -100 -4 -41 -10 -83 -16 -92 -5 -12 -5
-18 1 -18 7 0 7 -8 1 -24 -5 -15 -5 -27 3 -35 6 -6 7 -11 1 -11 -5 0 -10 -17
-11 -37 -4 -124 -10 -211 -17 -221 -4 -7 -2 -12 4 -12 8 0 9 -7 5 -17 -12 -32
-14 -53 -4 -53 6 0 6 -7 1 -17 -9 -19 -7 -316 2 -493 4 -58 8 -132 9 -166 2
-33 7 -66 11 -72 4 -7 2 -12 -6 -12 -8 0 -9 -3 -3 -8 10 -7 12 -17 17 -114 2
-32 5 -58 8 -58 3 0 5 -17 6 -38 1 -20 4 -57 8 -82 3 -25 9 -67 12 -94 3 -28
7 -53 10 -57 2 -4 7 -29 10 -56 9 -72 12 -98 14 -98 1 0 4 -11 6 -25 5 -33 12
-65 14 -65 1 0 3 -13 5 -30 1 -16 4 -31 5 -32 1 -2 4 -12 5 -23 1 -11 3 -21 5
-22 4 -6 18 -78 22 -115 1 -7 5 -13 10 -13 5 0 6 -5 3 -11 -4 -5 -2 -22 4 -37
6 -15 13 -38 15 -52 12 -65 19 -90 26 -90 3 0 6 -10 5 -22 -1 -13 2 -29 8 -36
5 -7 7 -15 4 -18 -3 -3 2 -22 10 -42 8 -20 15 -39 15 -42 1 -3 2 -9 4 -15 12
-37 27 -101 26 -107 -1 -5 2 -8 6 -8 5 0 9 -6 10 -12 1 -24 11 -57 22 -77 6
-12 8 -21 4 -21 -3 0 -1 -7 6 -15 7 -8 9 -15 5 -15 -4 0 -2 -6 4 -13 6 -8 8
-17 4 -20 -3 -4 -1 -7 6 -7 7 0 10 -4 7 -8 -3 -5 1 -20 9 -35 8 -15 12 -27 10
-27 -4 0 12 -42 35 -95 32 -76 94 -241 92 -247 -1 -5 2 -8 8 -8 5 0 10 -5 10
-12 0 -11 29 -80 51 -120 5 -10 9 -23 9 -29 0 -6 7 -17 15 -26 8 -8 13 -19 10
-24 -4 -5 -1 -9 5 -9 6 0 8 -4 5 -10 -3 -5 -2 -10 3 -10 6 0 13 -12 17 -27 3
-16 13 -35 20 -43 7 -8 14 -19 14 -25 2 -22 13 -45 22 -45 5 0 9 -8 9 -18 0
-10 7 -27 15 -40 29 -40 73 -130 68 -136 -3 -3 2 -8 11 -12 9 -3 13 -10 10
-15 -3 -5 -1 -9 4 -9 6 0 13 -11 16 -24 3 -14 12 -31 19 -38 6 -7 19 -26 27
-43 8 -16 27 -49 43 -72 15 -24 25 -43 22 -43 -3 0 3 -10 14 -22 11 -11 18
-25 15 -30 -3 -4 -1 -8 3 -8 5 0 17 -16 27 -35 11 -19 23 -35 28 -35 5 0 6 -5
3 -10 -3 -6 -1 -10 4 -10 6 0 11 -7 11 -15 0 -8 5 -15 10 -15 6 0 10 -6 10
-13 0 -7 9 -23 20 -35 11 -12 20 -24 20 -27 0 -8 43 -68 55 -77 6 -4 7 -8 3
-8 -4 0 4 -12 17 -26 14 -15 25 -31 25 -35 0 -5 8 -17 18 -27 9 -10 24 -29 32
-41 14 -21 35 -49 60 -78 5 -7 10 -16 10 -20 0 -5 8 -16 18 -24 9 -9 26 -28
36 -43 11 -15 27 -36 35 -46 44 -51 51 -61 51 -65 0 -3 13 -19 30 -35 17 -16
30 -32 30 -35 0 -3 10 -16 22 -29 13 -13 39 -42 58 -66 89 -108 415 -441 556
-568 32 -29 73 -65 89 -80 17 -15 55 -47 85 -72 30 -25 60 -49 66 -55 6 -5 29
-23 50 -40 21 -16 46 -38 56 -47 10 -10 22 -18 27 -18 5 0 11 -3 13 -7 1 -5
30 -28 63 -53 33 -25 62 -48 63 -52 2 -5 10 -8 17 -8 8 0 21 -10 29 -22 9 -12
16 -18 16 -13 0 6 3 6 8 0 4 -6 27 -24 52 -40 25 -16 53 -38 63 -49 9 -10 17
-16 17 -13 0 3 30 -14 68 -39 37 -24 74 -49 82 -54 104 -67 142 -90 150 -90 6
0 10 -5 10 -11 0 -5 5 -7 10 -4 6 3 10 2 10 -3 0 -4 15 -16 33 -25 17 -9 55
-30 82 -47 28 -16 60 -34 72 -39 12 -6 40 -22 63 -36 22 -14 40 -23 40 -20 0
3 18 -6 40 -20 21 -13 45 -26 52 -27 7 -2 15 -5 18 -8 15 -15 68 -39 74 -33 3
3 6 1 6 -6 0 -7 4 -9 10 -6 6 3 10 2 10 -2 0 -7 68 -43 90 -48 3 0 25 -11 49
-23 25 -12 51 -22 58 -22 7 0 13 -4 13 -10 0 -5 8 -10 18 -10 9 0 32 -9 50
-20 18 -11 37 -20 43 -20 5 0 29 -9 51 -20 23 -11 46 -20 50 -20 5 0 28 -9 50
-20 23 -11 45 -20 49 -20 3 0 24 -8 45 -17 22 -9 48 -18 59 -20 11 -2 21 -8
23 -13 2 -5 9 -7 17 -4 7 3 16 0 20 -5 3 -6 11 -9 16 -6 5 4 9 2 9 -2 0 -5 10
-10 22 -10 13 -1 32 -6 43 -12 36 -17 60 -24 73 -22 6 1 12 -3 12 -9 0 -6 5
-8 10 -5 6 3 16 3 23 -2 6 -4 14 -8 17 -9 3 -1 20 -5 38 -9 18 -4 35 -12 38
-16 3 -5 10 -7 15 -4 5 4 15 3 22 -2 12 -8 28 -12 60 -15 9 -1 17 -6 17 -10 0
-4 3 -7 8 -6 4 1 29 -4 55 -11 26 -8 50 -11 54 -7 3 3 15 -1 25 -11 10 -9 18
-14 18 -10 0 3 16 1 36 -5 20 -5 46 -12 58 -14 30 -7 38 -9 61 -17 11 -3 36
-8 55 -11 19 -3 46 -8 60 -12 14 -3 35 -6 48 -7 12 -1 22 -5 22 -11 0 -5 2 -7
5 -4 3 3 27 1 53 -4 26 -5 63 -12 82 -14 19 -3 46 -8 60 -10 14 -3 36 -6 50
-8 14 -2 25 -5 25 -6 0 -1 16 -3 35 -5 19 -2 55 -6 80 -9 25 -3 61 -7 80 -10
36 -6 131 -17 185 -21 17 -2 30 -4 30 -4 0 -2 154 -11 237 -14 27 -1 48 -6 48
-12 0 -5 5 -4 12 3 8 8 17 8 31 1 15 -8 18 -8 12 1 -6 9 -2 9 14 1 16 -9 21
-9 21 1 0 8 3 9 8 3 6 -9 376 -13 405 -5 17 5 64 3 80 -3 9 -3 17 -2 17 2 0 8
21 8 40 1 3 -1 10 -1 15 0 6 2 37 5 70 6 33 1 60 4 60 4 0 1 34 4 75 5 41 2
75 4 75 5 0 3 31 7 100 14 119 12 139 15 162 20 26 5 138 19 171 20 12 1 22 3
22 6 0 3 12 7 28 8 15 1 38 5 52 8 14 3 39 7 57 9 18 2 42 9 54 15 17 10 20 9
14 -1 -5 -8 -4 -10 3 -5 17 10 52 18 89 20 17 0 29 3 26 6 -2 3 33 13 79 22
46 10 92 20 103 23 11 3 34 8 50 12 17 4 33 8 38 9 4 1 9 3 12 4 3 1 10 4 15
5 6 1 13 4 18 5 4 1 11 2 15 1 4 -1 16 3 26 8 10 6 31 13 47 16 38 8 58 13 62
15 2 3 6 4 47 14 17 4 37 10 45 13 8 4 18 7 23 8 4 2 9 4 12 5 3 1 10 4 15 5
6 1 12 4 15 5 5 3 6 3 50 15 17 4 36 12 43 18 6 5 12 6 12 2 0 -4 7 -2 15 5 8
7 15 10 15 7 0 -4 20 2 45 13 25 11 45 17 45 14 0 -2 11 3 25 12 14 9 25 13
25 10 0 -4 10 -1 23 6 12 7 25 13 30 14 4 1 9 3 12 4 3 1 8 3 13 5 13 4 47 17
88 36 23 10 54 21 68 25 14 3 29 10 32 15 3 5 10 7 15 4 5 -4 9 -1 9 5 0 6 5
8 10 5 6 -3 10 -1 10 4 0 6 3 10 8 9 9 -2 40 10 74 28 14 8 33 14 42 14 9 0
16 5 16 10 0 6 9 10 20 10 11 0 20 5 20 10 0 6 5 10 12 10 17 0 142 62 150 74
4 6 8 7 8 3 0 -7 158 73 245 124 17 10 52 30 79 44 82 45 91 50 96 56 3 3 21
14 40 24 42 22 94 57 98 68 2 4 8 5 13 1 5 -3 12 2 15 10 3 9 10 14 14 11 4
-3 13 2 20 10 7 8 18 15 25 15 8 0 15 3 17 8 2 4 27 22 56 41 28 18 52 37 52
43 0 5 4 7 8 4 5 -3 18 3 29 13 11 11 34 26 51 35 18 9 32 21 32 26 0 6 5 10
11 10 6 0 17 6 24 12 8 7 26 22 41 33 14 11 32 26 40 33 8 7 14 10 14 5 0 -4
6 -1 13 7 7 8 30 28 52 44 22 16 47 37 56 45 9 9 29 25 45 36 15 11 36 29 46
39 10 11 18 17 18 13 0 -4 16 9 36 28 20 19 40 35 45 35 6 0 7 5 4 10 -3 6 0
10 8 10 7 0 22 10 33 23 11 12 47 45 79 72 71 60 471 455 461 455 -4 0 -1 6 6
14 7 8 16 12 21 9 4 -2 7 1 7 7 0 10 49 69 94 111 11 11 16 19 10 19 -5 1 2 7
16 15 14 8 22 14 17 15 -4 0 4 12 17 27 14 16 34 39 45 53 11 14 26 32 33 40
7 8 39 48 70 90 32 41 66 85 75 96 10 12 25 32 33 44 8 12 21 29 28 36 7 8 11
14 8 14 -3 0 2 8 12 19 19 21 93 128 93 135 0 3 13 20 29 38 17 18 30 36 30
40 0 5 26 48 59 97 32 49 60 93 62 97 15 34 73 124 80 124 4 0 6 7 3 15 -4 8
1 17 10 21 9 3 14 10 11 14 -3 5 1 14 8 22 15 15 31 49 29 61 -1 4 2 7 6 7 5
0 19 24 33 53 13 28 27 54 30 57 9 8 143 283 146 300 1 8 7 16 12 18 6 2 11
11 11 20 0 9 9 32 20 50 11 17 18 32 15 32 -3 0 5 18 16 40 11 21 22 45 23 52
2 7 11 31 21 53 10 22 20 46 21 53 1 7 9 23 17 35 8 12 13 30 11 40 -1 9 1 17
6 17 4 0 10 10 13 23 3 12 24 74 47 137 24 63 47 134 53 158 6 23 14 42 19 42
5 0 7 4 4 9 -4 5 -1 22 5 38 13 34 58 186 63 216 3 12 5 22 6 22 1 0 3 7 5 15
2 8 7 26 11 40 3 14 7 35 8 48 0 12 4 22 7 22 6 0 12 27 25 100 4 25 13 60 19
80 3 10 8 31 10 46 3 16 9 52 15 79 6 28 13 67 16 88 8 50 12 72 15 72 1 0 3
16 4 35 2 19 4 35 5 35 2 0 4 11 5 25 4 27 12 84 21 140 3 19 7 53 9 75 3 22
7 58 9 80 11 91 19 194 20 247 1 32 3 58 6 58 3 0 6 24 7 53 6 212 7 226 17
220 12 -8 -14 28 -28 39 -6 4 -17 3 -27 -2 -9 -5 -19 -6 -23 -3 -9 9 -56 10
-56 1 0 -4 -11 -3 -25 2 -16 6 -25 6 -25 -1 0 -6 -7 -6 -19 1 -14 7 -22 7 -26
0 -4 -6 -11 -7 -18 -3 -16 10 -57 10 -57 0 0 -4 -10 -3 -22 4 -18 10 -20 9
-15 -5 4 -9 3 -16 -2 -16 -9 0 -8 -31 3 -48 4 -6 4 -12 -1 -12 -4 0 -9 -33 -9
-73 -1 -73 -12 -244 -19 -307 -2 -19 -6 -62 -9 -95 -3 -33 -8 -71 -10 -85 -3
-14 -8 -52 -11 -85 -4 -33 -9 -71 -12 -85 -2 -14 -5 -41 -7 -61 -2 -20 -6 -42
-10 -48 -5 -7 -8 -28 -8 -47 0 -19 -3 -34 -6 -34 -4 0 -8 -17 -10 -38 -2 -35
-9 -77 -12 -77 -2 0 -12 -58 -14 -82 0 -13 -4 -23 -8 -23 -5 0 -8 -10 -8 -21
0 -12 -9 -60 -21 -108 -12 -47 -22 -90 -23 -96 -1 -5 -5 -16 -9 -22 -5 -7 -5
-17 -2 -23 3 -5 2 -10 -2 -10 -5 0 -10 -8 -11 -17 -3 -35 -8 -59 -14 -68 -5
-9 -27 -81 -34 -110 -1 -5 -12 -43 -24 -82 -12 -40 -21 -75 -20 -79 1 -4 -3
-10 -9 -13 -5 -4 -12 -18 -14 -31 -3 -14 -10 -38 -17 -55 -6 -16 -12 -32 -12
-35 0 -3 -8 -25 -18 -50 -23 -61 -31 -84 -32 -90 0 -3 -5 -14 -11 -25 -6 -11
-12 -25 -13 -30 -1 -6 -12 -33 -25 -60 -13 -28 -22 -54 -21 -59 2 -4 -2 -13
-7 -20 -5 -6 -21 -41 -36 -78 -15 -38 -31 -68 -36 -68 -5 0 -9 -7 -9 -15 0
-20 -90 -208 -104 -217 -6 -4 -8 -8 -4 -8 9 0 -82 -174 -94 -178 -4 -2 -6 -8
-2 -13 3 -5 -1 -12 -10 -15 -8 -3 -13 -11 -10 -19 3 -7 -1 -19 -9 -27 -8 -8
-25 -33 -38 -57 -35 -63 -52 -91 -83 -141 -16 -25 -34 -54 -41 -65 -7 -11 -14
-24 -15 -30 -2 -5 -8 -15 -14 -22 -26 -30 -36 -43 -36 -48 0 -8 -72 -109 -82
-116 -6 -3 -9 -9 -8 -13 1 -4 -24 -41 -54 -82 -31 -41 -56 -77 -56 -80 0 -3
-6 -11 -12 -18 -32 -33 -58 -67 -58 -76 0 -5 -10 -16 -22 -24 -12 -9 -18 -16
-13 -16 6 0 -2 -11 -17 -24 -16 -13 -28 -26 -28 -30 0 -3 -9 -16 -19 -28 -11
-13 -29 -34 -40 -48 -70 -84 -101 -119 -226 -256 -80 -88 -314 -324 -321 -324
-2 0 -26 -22 -54 -50 -27 -27 -50 -48 -50 -45 0 2 -15 -11 -33 -28 -18 -18
-57 -52 -87 -77 -30 -25 -71 -60 -91 -77 -20 -18 -39 -33 -43 -33 -3 0 -14 -8
-24 -17 -10 -10 -33 -29 -51 -43 -18 -14 -44 -35 -57 -48 -13 -12 -25 -21 -27
-20 -2 2 -17 -7 -33 -19 -85 -66 -166 -123 -174 -123 -4 0 -10 -3 -12 -7 -2
-5 -23 -21 -48 -38 -25 -16 -48 -34 -52 -40 -4 -5 -8 -6 -8 -2 0 5 -13 -2 -29
-15 -40 -32 -154 -103 -163 -100 -5 1 -8 -3 -8 -9 0 -5 -4 -7 -10 -4 -5 3 -10
2 -10 -3 0 -4 -17 -17 -37 -28 -59 -32 -88 -48 -93 -55 -3 -3 -20 -11 -38 -19
-19 -7 -40 -20 -48 -27 -8 -8 -21 -16 -28 -17 -8 -1 -21 -8 -30 -15 -9 -7 -16
-10 -16 -5 0 5 -4 5 -8 -1 -10 -15 -132 -77 -132 -68 0 4 -4 3 -8 -3 -7 -11
-104 -59 -216 -107 -28 -11 -54 -25 -57 -30 -3 -5 -9 -8 -13 -7 -4 1 -29 -7
-56 -19 -28 -12 -53 -22 -57 -22 -5 -1 -17 -6 -28 -12 -11 -6 -22 -12 -25 -13
-8 -2 -44 -15 -65 -25 -11 -5 -54 -20 -95 -34 -41 -14 -83 -30 -92 -35 -10 -6
-26 -10 -37 -10 -11 0 -26 -7 -34 -15 -8 -8 -17 -12 -19 -9 -3 2 -25 -3 -49
-12 -24 -8 -51 -17 -59 -19 -8 -2 -35 -10 -59 -19 -25 -8 -48 -13 -52 -10 -4
2 -10 0 -14 -6 -4 -6 -11 -8 -16 -5 -5 4 -9 2 -9 -4 0 -6 -6 -8 -14 -5 -8 3
-17 1 -20 -5 -4 -6 -13 -8 -21 -4 -8 3 -15 1 -15 -3 0 -5 -12 -10 -26 -11 -15
0 -30 -7 -35 -15 -7 -10 -9 -10 -9 2 0 12 -2 12 -9 2 -4 -8 -11 -13 -15 -12
-5 1 -91 -16 -136 -27 -8 -2 -24 -6 -35 -8 -11 -3 -51 -12 -90 -21 -71 -16
-87 -19 -140 -28 -16 -2 -82 -14 -145 -25 -63 -11 -137 -23 -165 -26 -27 -3
-68 -8 -90 -11 -118 -14 -160 -18 -278 -27 -26 -2 -50 -7 -53 -10 -4 -4 -15
-2 -25 4 -11 5 -19 6 -19 2 0 -4 -28 -8 -63 -9 -34 -1 -92 -2 -128 -4 -36 -2
-71 0 -77 4 -7 4 -12 4 -12 -1 0 -4 -62 -7 -137 -6 -76 1 -167 3 -203 4 -36 0
-70 5 -77 10 -7 7 -13 7 -17 0 -4 -6 -18 -6 -36 -1 -19 5 -30 5 -30 -1 0 -6
-4 -7 -10 -4 -10 6 -108 17 -177 19 -24 0 -43 3 -43 6 0 3 -17 5 -38 6 -20 0
-62 3 -92 7 -51 6 -77 10 -155 23 -16 2 -46 7 -65 10 -55 8 -75 11 -75 13 0 1
-20 4 -45 6 -43 4 -85 12 -85 15 0 2 -36 9 -79 15 -21 3 -42 8 -48 11 -5 3
-22 8 -36 9 -28 3 -67 12 -67 15 0 1 -9 3 -20 4 -11 2 -67 15 -125 30 -58 16
-109 29 -115 31 -5 1 -18 5 -27 9 -9 4 -22 5 -28 1 -5 -3 -10 -2 -10 4 0 6
-17 13 -37 17 -21 4 -52 13 -69 20 -17 7 -34 10 -38 7 -3 -4 -6 -2 -6 3 0 5
-12 11 -27 12 -15 1 -32 7 -37 12 -6 6 -17 10 -26 10 -8 0 -28 7 -43 15 -15 8
-25 10 -21 4 3 -5 -11 -1 -32 10 -20 11 -41 18 -46 15 -4 -3 -8 0 -8 6 0 6 -4
8 -10 5 -5 -3 -10 -1 -10 5 0 6 -4 9 -9 6 -5 -3 -22 1 -40 10 -17 8 -40 16
-51 17 -11 1 -20 4 -20 8 0 4 -11 10 -25 13 -14 4 -50 18 -80 31 -29 14 -59
25 -64 25 -6 0 -11 5 -11 11 0 5 -4 7 -10 4 -5 -3 -23 1 -40 10 -16 8 -32 14
-34 13 -2 -2 -14 6 -26 17 -12 11 -23 19 -24 17 0 -2 -14 1 -29 7 -16 6 -33
11 -38 11 -5 0 -9 5 -9 11 0 5 -4 8 -9 4 -5 -3 -12 -1 -16 5 -4 6 -11 8 -16 5
-5 -4 -9 -2 -9 3 0 8 -102 58 -109 53 -2 -1 -7 1 -10 6 -3 5 -40 26 -81 47
-41 22 -77 42 -80 45 -3 3 -11 7 -18 9 -7 1 -31 13 -52 27 -22 14 -44 25 -50
25 -6 0 -8 5 -5 10 4 6 3 9 -2 8 -12 -4 -73 23 -73 32 0 5 -12 13 -27 20 -47
19 -73 34 -73 42 0 5 -6 8 -13 8 -8 0 -22 9 -32 20 -10 11 -21 18 -25 15 -3
-2 -18 7 -32 20 -14 13 -28 21 -32 18 -3 -3 -8 2 -12 11 -3 9 -10 14 -14 11
-5 -3 -14 1 -22 8 -7 7 -58 44 -113 82 -55 38 -105 74 -112 80 -33 28 -43 35
-47 35 -6 0 -37 24 -61 48 -8 6 -16 12 -19 12 -3 0 -15 8 -26 18 -11 9 -29 25
-40 35 -11 9 -22 17 -25 17 -2 0 -15 10 -28 23 -13 12 -41 36 -62 52 -21 17
-48 39 -59 50 -12 11 -46 41 -76 66 -30 26 -71 62 -91 80 -19 19 -50 46 -68
62 -18 15 -30 27 -26 27 4 0 -8 12 -26 27 -51 43 -149 144 -149 154 0 5 -4 9
-10 9 -5 0 -20 11 -34 25 -14 14 -23 25 -21 25 2 0 -13 17 -33 38 -56 58 -108
116 -179 200 -35 43 -77 92 -93 110 -16 17 -26 32 -22 32 4 0 2 4 -3 8 -21 14
-85 99 -80 105 3 4 2 5 -1 3 -8 -6 -33 17 -28 25 2 3 -8 17 -21 29 -14 13 -25
29 -25 37 0 7 -4 13 -10 13 -5 0 -10 7 -10 16 0 8 -4 12 -10 9 -6 -3 -10 1
-10 9 0 9 -3 16 -8 16 -4 0 -12 9 -17 19 -6 11 -31 49 -57 86 -27 36 -48 70
-48 76 0 5 -7 12 -15 15 -8 4 -12 10 -9 15 3 5 -2 12 -10 15 -8 3 -18 15 -22
26 -6 19 -43 80 -64 105 -5 7 -10 19 -10 28 0 8 -8 15 -17 15 -9 0 -14 3 -11
6 5 5 -7 29 -73 144 -8 14 -18 28 -24 32 -5 4 -6 8 -2 8 4 0 -5 19 -20 43 -15
23 -29 49 -31 57 -2 8 -9 22 -16 30 -7 8 -18 30 -26 47 -7 18 -16 33 -21 33
-5 0 -8 3 -7 8 3 9 -13 56 -21 62 -4 3 -15 24 -25 48 -11 23 -23 42 -28 42 -5
0 -7 4 -4 8 2 4 -6 28 -19 54 -13 25 -21 49 -18 52 4 3 1 6 -5 6 -7 0 -12 6
-12 13 0 6 -13 40 -29 74 -16 34 -27 64 -24 67 4 3 1 6 -6 6 -7 0 -10 4 -6 9
3 5 1 12 -5 16 -5 3 -10 15 -10 26 0 10 -5 19 -10 19 -6 0 -9 3 -9 8 1 4 0 10
-1 15 -1 4 -3 10 -4 15 -4 18 -40 108 -48 118 -4 6 -9 23 -10 38 -1 14 -6 26
-11 26 -4 0 -6 4 -2 9 3 5 1 12 -5 16 -6 4 -8 11 -5 16 4 5 1 9 -4 9 -6 0 -11
10 -11 23 0 13 -4 27 -9 33 -6 5 -12 20 -14 34 -4 26 -12 50 -28 85 -5 11 -11
31 -13 45 -3 14 -5 25 -6 25 -1 0 -4 9 -6 20 -6 27 -9 36 -22 68 -7 15 -11 31
-10 35 1 4 -4 25 -10 47 -6 22 -12 45 -13 50 -1 6 -6 21 -11 35 -5 14 -11 36
-13 50 -6 34 -11 52 -19 72 -4 9 -5 22 -1 28 3 5 2 10 -4 10 -5 0 -10 8 -10
18 -2 31 -8 67 -16 92 -4 14 -9 36 -11 50 -3 27 -12 65 -14 65 -1 0 -3 14 -6
30 -8 63 -12 90 -14 90 -3 0 -9 35 -15 90 -3 28 -8 57 -10 65 -3 8 -5 32 -7
53 -1 20 -5 37 -8 37 -3 0 -6 17 -6 38 -3 65 -12 143 -18 149 -3 3 -1 12 5 20
6 7 8 13 3 13 -5 0 -11 26 -12 58 -2 31 -5 69 -6 84 0 15 -4 30 -8 34 -4 3 -3
15 2 25 6 10 6 20 2 23 -10 6 -9 36 1 52 3 6 3 14 -1 18 -9 10 -11 55 -11 311
1 283 2 309 14 317 6 5 5 8 -2 8 -9 0 -10 7 -3 26 7 18 7 23 -2 18 -7 -5 -8
-3 -3 6 5 7 9 29 10 49 1 20 6 77 10 126 4 50 9 104 10 120 0 17 3 35 6 40 3
6 5 29 5 52 -1 24 2 43 5 43 3 0 6 6 6 13 0 6 3 37 8 67 4 30 7 63 7 73 -1 9
2 17 6 17 4 0 7 12 6 28 0 15 3 45 8 67 5 22 11 54 13 70 2 17 4 32 6 35 1 3
3 10 4 15 2 6 4 12 5 15 4 11 10 47 12 77 2 18 6 33 9 33 3 0 6 6 6 13 1 17
16 91 28 135 29 108 37 143 38 160 0 6 5 12 10 12 6 0 7 3 4 7 -4 3 -1 13 6
21 10 13 9 14 -1 8 -10 -6 -9 1 3 24 9 18 15 41 12 51 -3 11 -1 17 4 13 5 -3
9 6 9 20 0 14 4 26 8 26 7 0 11 16 14 58 1 6 5 12 10 12 5 0 8 6 7 13 -1 6 0
19 3 27 3 8 13 38 23 65 9 28 19 57 22 65 4 8 7 17 8 20 7 30 30 88 37 97 5 7
7 17 3 23 -3 5 -1 10 4 10 6 0 10 3 10 8 -1 4 4 23 12 42 7 19 12 38 11 43 -1
4 3 7 9 7 5 0 8 4 4 9 -3 5 -1 12 5 16 6 4 8 11 5 16 -4 5 -1 9 4 9 6 0 10 3
9 8 -1 4 6 24 15 46 9 21 17 40 17 41 0 1 10 24 22 51 12 27 23 51 23 54 1 3
25 55 54 115 29 61 54 116 54 123 0 6 4 12 9 12 4 0 8 7 8 15 0 8 5 15 12 15
6 0 8 3 5 6 -4 4 3 20 14 35 11 16 17 29 13 29 -4 0 -1 8 7 18 8 9 21 30 29
47 8 16 37 68 64 115 27 47 58 102 70 123 11 21 28 46 37 56 10 10 15 22 12
25 -4 3 -1 6 6 6 7 0 9 5 6 10 -3 6 -1 10 4 10 6 0 11 4 11 9 0 12 100 164
114 173 6 4 7 8 3 8 -4 0 -3 6 2 13 42 50 61 76 61 81 0 6 23 36 48 62 7 7 13
17 14 21 2 14 102 143 110 143 5 0 8 7 8 15 0 7 8 19 18 24 9 6 13 11 9 11 -4
0 2 11 15 24 13 13 34 38 48 56 31 40 43 54 105 125 28 32 64 74 80 93 17 20
58 64 92 99 34 35 60 63 58 63 -3 0 6 10 18 23 12 13 25 22 30 20 4 -2 7 0 7
5 0 16 226 231 396 377 32 28 66 58 76 68 10 9 20 17 23 17 5 0 45 33 71 58 7
6 17 12 22 12 6 0 12 4 14 8 4 12 138 115 138 107 0 -3 10 5 23 17 12 13 61
50 110 83 48 32 87 62 87 67 0 4 7 8 15 8 15 0 27 8 65 42 10 9 21 14 24 11 3
-4 6 -1 6 5 0 7 3 11 8 10 4 -2 27 11 52 28 25 17 68 43 95 59 28 15 52 31 55
34 3 4 24 15 47 26 24 11 43 24 43 28 0 5 5 5 10 2 6 -3 10 -2 10 3 0 5 8 12
18 15 9 4 36 17 59 31 22 13 44 22 47 19 3 -4 6 -1 6 5 0 7 7 12 15 12 8 0 15
4 15 10 0 5 7 6 17 3 9 -4 14 -2 10 3 -3 6 16 19 44 29 27 11 49 23 49 28 0 4
4 6 8 3 5 -3 19 4 30 15 12 11 22 17 22 13 0 -3 6 -1 13 5 8 6 17 8 20 4 4 -3
7 -1 7 5 0 7 9 12 19 12 11 0 23 5 26 10 4 6 11 8 16 5 5 -4 9 -1 9 5 0 6 5 8
10 5 6 -3 10 -2 10 4 0 6 12 14 28 17 15 4 38 14 52 23 13 9 25 15 27 14 1 -1
23 6 49 17 25 11 49 20 54 20 4 0 13 6 20 14 6 8 18 12 26 9 8 -3 14 0 14 7 0
6 4 9 8 6 5 -3 20 1 34 8 14 8 50 22 79 31 30 10 59 21 64 25 10 8 62 23 80
24 6 1 12 4 15 7 5 6 163 59 192 64 9 2 26 9 38 15 11 6 24 9 28 6 4 -2 25 4
46 15 22 10 41 17 44 15 2 -3 16 0 31 6 14 5 35 11 46 13 26 5 59 13 63 15 1
2 7 4 12 5 6 1 13 4 18 5 4 1 10 2 14 1 4 0 20 4 35 10 15 6 39 12 53 14 22 4
50 9 100 20 8 2 15 4 15 5 0 2 19 6 65 14 52 9 73 13 94 22 13 5 17 4 12 -4
-4 -7 3 -6 20 2 14 8 37 13 50 11 13 -1 24 1 24 4 0 4 8 7 18 7 9 1 37 4 62 8
126 19 112 17 225 31 140 17 252 27 317 29 32 0 58 3 58 6 0 3 48 5 106 5 58
0 111 3 117 7 6 3 21 2 34 -3 15 -6 23 -5 23 2 0 8 4 8 13 0 8 -6 17 -8 21 -4
4 4 17 8 29 8 18 0 21 6 22 43 0 23 -3 42 -8 42 -6 0 -6 5 0 13 11 14 11 47 0
65 -5 6 -4 12 0 12 5 0 9 16 9 35 0 19 -4 35 -9 35 -5 0 -5 6 2 13 7 10 7 17
0 24 -7 7 -8 13 0 17 16 10 2 36 -16 29 -12 -5 -14 -3 -8 8 5 8 -2 5 -15 -6
-13 -11 -20 -15 -17 -9 4 7 0 15 -9 18 -8 3 -12 2 -9 -4 9 -14 -8 -12 -24 3
-11 10 -12 9 -6 -2z"/>
<path d="M7125 13130 c-22 -3 -46 -9 -52 -13 -8 -5 -13 -3 -13 3 0 6 -5 8 -11
5 -5 -4 -31 -9 -57 -12 -26 -2 -60 -6 -77 -8 -16 -3 -52 -7 -79 -10 -27 -3
-55 -10 -61 -15 -6 -5 -17 -5 -25 0 -7 4 -24 4 -38 -1 -13 -5 -28 -7 -33 -3
-5 3 -9 2 -9 -3 0 -4 -10 -8 -22 -9 -20 0 -62 -6 -143 -20 -11 -1 -31 -5 -45
-9 -14 -3 -38 -7 -55 -10 -61 -10 -116 -23 -122 -28 -3 -4 -15 -2 -26 4 -14 8
-18 8 -13 0 5 -7 -4 -11 -24 -11 -17 0 -29 -3 -27 -7 3 -5 -7 -9 -21 -9 -27
-2 -87 -11 -87 -14 0 -1 -7 -3 -15 -5 -8 -1 -33 -7 -55 -13 -22 -6 -51 -13
-65 -16 -14 -2 -38 -9 -53 -15 -15 -6 -31 -10 -35 -9 -7 1 -19 -3 -67 -21 -11
-5 -28 -7 -37 -5 -10 1 -18 -1 -18 -6 0 -6 -34 -17 -65 -20 -3 0 -25 -9 -50
-20 -25 -11 -47 -20 -50 -20 -33 -4 -230 -84 -355 -143 -36 -17 -68 -30 -72
-29 -5 1 -8 -3 -8 -9 0 -5 -4 -8 -9 -4 -6 3 -14 -3 -20 -12 -6 -10 -11 -14
-11 -10 0 4 -24 -5 -54 -22 -30 -16 -57 -27 -60 -24 -3 4 -6 1 -6 -4 0 -6 -21
-21 -47 -34 -27 -12 -51 -27 -55 -33 -4 -6 -8 -7 -8 -3 0 5 -13 -1 -29 -12
-16 -12 -32 -21 -35 -21 -4 0 -43 -22 -87 -50 -44 -27 -85 -50 -90 -50 -5 0
-9 -4 -9 -10 0 -5 -5 -10 -11 -10 -6 0 -31 -14 -56 -30 -24 -17 -56 -36 -71
-44 -15 -8 -40 -26 -56 -39 -17 -14 -33 -24 -37 -21 -4 2 -9 -3 -13 -11 -3 -8
-10 -15 -16 -15 -10 0 -77 -46 -117 -80 -7 -5 -17 -10 -23 -10 -5 0 -10 -4
-10 -10 0 -5 -5 -10 -10 -10 -11 0 -16 -3 -63 -45 -15 -14 -31 -25 -35 -25 -4
0 -24 -16 -44 -35 -21 -18 -38 -31 -38 -28 0 3 -8 -4 -19 -15 -10 -12 -22 -22
-25 -22 -4 0 -20 -12 -36 -27 -15 -16 -49 -46 -76 -68 -26 -22 -56 -50 -67
-62 -11 -12 -24 -20 -28 -18 -4 3 -10 -4 -14 -15 -3 -11 -11 -20 -16 -20 -5 0
2 -12 16 -27 14 -15 25 -31 25 -35 0 -5 7 -8 15 -8 8 0 15 -7 15 -16 0 -8 5
-12 10 -9 6 3 10 2 10 -3 0 -4 119 -129 263 -275 145 -147 262 -267 260 -267
-2 0 2 -6 9 -14 7 -8 14 -13 16 -11 3 3 92 -86 92 -94 0 -3 14 -15 30 -26 16
-11 30 -22 30 -25 0 -11 190 -197 195 -192 3 3 5 1 5 -5 0 -9 342 -362 497
-515 27 -25 52 -50 56 -55 5 -4 170 -172 368 -372 197 -200 359 -365 359 -367
0 -9 50 -51 54 -46 3 3 6 1 6 -4 0 -6 173 -185 385 -398 212 -214 385 -393
385 -397 0 -5 7 -9 15 -9 8 0 15 -3 15 -7 0 -5 18 -26 41 -48 22 -22 50 -51
62 -63 12 -13 79 -82 150 -153 121 -123 135 -132 128 -80 -2 8 2 10 11 5 10
-6 10 -4 2 7 -12 16 -14 1076 -2 1095 4 6 4 14 0 18 -9 10 -9 1057 1 1063 4 2
3 12 -1 21 -11 22 -8 404 3 421 5 9 4 12 -1 8 -6 -3 -10 15 -10 44 0 27 4 49
9 49 5 0 5 6 -1 13 -11 13 -11 34 1 53 3 6 4 14 0 18 -11 10 -12 76 -1 76 7 0
7 4 0 13 -11 13 -11 34 1 53 3 6 4 14 0 17 -9 10 -10 157 0 157 4 0 5 6 1 12
-11 18 -12 299 -1 322 5 10 5 16 0 13 -4 -3 -8 44 -8 104 0 60 4 109 9 109 5
0 4 6 -2 13 -11 13 -11 34 1 53 3 6 4 14 0 17 -9 10 -10 137 0 137 4 0 5 5 1
11 -10 17 -12 109 -2 109 5 0 6 5 2 12 -11 17 -13 68 -3 68 5 0 4 11 -1 25 -7
18 -6 25 3 25 7 0 8 3 2 8 -12 8 -14 142 -2 142 4 0 4 8 0 18 -10 21 -10 53 0
70 5 6 5 12 0 12 -4 0 -8 23 -8 50 0 28 3 50 8 50 4 0 5 5 1 12 -11 18 -13 68
-2 68 5 0 6 5 2 11 -10 17 -12 109 -2 109 5 0 6 5 2 11 -10 16 -11 149 -2 149
5 0 5 8 0 18 -4 9 -7 34 -5 54 l2 37 -47 -2 c-26 -1 -65 -4 -87 -7z m-795
-2587 c0 -5 22 -9 50 -10 27 -1 59 -8 72 -15 13 -7 26 -11 31 -10 4 1 7 -3 7
-10 0 -6 3 -9 6 -5 9 8 101 -59 137 -100 18 -20 37 -41 42 -47 33 -34 82 -154
90 -221 1 -11 3 -20 5 -20 1 0 3 -11 5 -25 1 -14 6 -45 10 -70 4 -25 8 -59 9
-77 1 -18 5 -35 9 -39 4 -4 2 -13 -4 -21 -7 -8 -7 -13 -2 -13 14 0 15 -358 1
-383 -8 -15 -7 -18 3 -12 8 5 10 4 5 -4 -4 -6 -10 -24 -13 -39 -8 -41 -11 -57
-13 -59 -2 -2 -3 -7 -4 -13 -2 -21 -37 -50 -59 -50 -21 0 -135 53 -147 68 -3
4 -21 18 -40 32 -79 55 -340 314 -340 336 0 3 -9 15 -21 27 -11 12 -43 56 -69
97 -27 41 -54 80 -59 86 -5 7 -7 15 -4 18 4 3 1 6 -4 6 -6 0 -10 8 -8 18 1 9
-1 22 -5 27 -5 6 -10 24 -13 42 -3 17 -8 36 -11 42 -3 5 0 12 6 14 9 4 10 8 2
14 -11 8 -14 93 -3 93 3 0 5 10 4 23 -1 12 2 28 8 35 5 6 6 12 2 12 -4 0 0 11
9 25 9 14 14 25 10 25 -20 0 103 139 124 140 6 0 12 4 12 9 0 8 61 34 82 36 3
0 9 3 13 7 4 4 13 4 20 2 7 -3 16 -1 20 5 7 13 25 15 25 4z"/>
<path d="M3320 11325 c0 -8 -9 -20 -20 -27 -11 -7 -20 -18 -20 -25 0 -7 -3
-13 -7 -13 -5 0 -24 -23 -43 -50 -19 -27 -38 -50 -42 -50 -5 0 -8 -5 -8 -11 0
-5 -14 -24 -30 -42 -17 -18 -33 -40 -36 -49 -3 -10 -10 -18 -15 -18 -5 0 -9
-6 -9 -14 0 -8 -7 -16 -15 -20 -8 -3 -15 -12 -15 -20 0 -8 -10 -22 -22 -30
-12 -9 -18 -16 -13 -16 6 0 1 -7 -9 -15 -11 -8 -16 -15 -11 -15 4 0 1 -8 -7
-17 -27 -31 -109 -153 -103 -153 3 0 -6 -12 -20 -27 -14 -15 -25 -32 -25 -38
0 -5 -13 -25 -29 -44 -17 -19 -28 -38 -25 -43 3 -4 0 -8 -5 -8 -6 0 -11 -7
-11 -15 0 -8 -4 -15 -10 -15 -5 0 -10 -7 -10 -15 0 -8 -4 -15 -10 -15 -5 0 -9
-3 -8 -7 1 -5 -6 -21 -16 -38 -11 -16 -30 -47 -43 -67 -12 -21 -23 -42 -23
-48 0 -5 -4 -10 -9 -10 -7 0 -22 -36 -18 -43 1 -1 -8 -13 -20 -27 -13 -13 -23
-29 -23 -34 0 -6 -9 -22 -20 -36 -11 -14 -20 -33 -20 -42 0 -10 -4 -18 -9 -18
-5 0 -14 -15 -22 -32 -7 -18 -21 -45 -31 -60 -11 -16 -16 -28 -11 -28 4 0 3
-4 -2 -8 -6 -4 -26 -38 -44 -77 -19 -38 -40 -73 -45 -77 -6 -4 -8 -8 -4 -8 4
0 -8 -30 -26 -68 -19 -37 -36 -74 -38 -82 -2 -8 -7 -18 -13 -22 -5 -4 -10 -11
-11 -15 0 -4 -6 -20 -12 -35 -7 -16 -17 -40 -24 -55 -6 -16 -12 -30 -13 -33
-1 -3 -6 -16 -12 -30 -6 -14 -18 -42 -27 -64 -9 -21 -14 -42 -11 -46 3 -5 -3
-13 -12 -19 -10 -6 -15 -11 -11 -11 3 0 -2 -26 -13 -57 -25 -72 -26 -76 -28
-85 -1 -4 -9 -27 -17 -50 -9 -24 -17 -50 -19 -58 -2 -8 -8 -26 -13 -40 -5 -14
-10 -28 -11 -32 0 -5 -1 -9 -2 -10 0 -2 -2 -10 -4 -18 -2 -8 -7 -26 -10 -40
-3 -14 -7 -29 -8 -35 -2 -5 -6 -16 -11 -23 -4 -7 -6 -16 -3 -19 3 -3 1 -17 -5
-32 -5 -14 -12 -35 -14 -46 -11 -54 -16 -81 -17 -92 0 -7 -3 -13 -6 -13 -4 0
-6 -12 -5 -27 1 -16 -3 -33 -8 -39 -5 -7 -8 -16 -7 -20 1 -5 0 -11 -1 -14 -1
-3 -4 -23 -6 -45 -7 -64 -7 -65 -13 -65 -3 0 -6 -12 -7 -27 0 -16 -3 -50 -7
-77 -5 -26 -10 -69 -13 -95 -3 -25 -7 -62 -10 -81 -9 -76 -15 -181 -17 -315
l-2 -140 25 0 c14 0 30 -3 35 -7 6 -4 16 -4 22 0 14 9 618 6 632 -3 6 -3 11
-3 11 2 0 4 51 7 112 5 62 -1 124 -2 138 -2 14 0 34 0 45 0 11 -1 27 -1 35 -1
95 4 149 3 158 -3 6 -3 13 -2 17 3 3 7 15 7 30 1 14 -5 27 -5 30 0 3 5 18 5
34 0 16 -4 32 -6 35 -2 8 7 69 7 89 -1 10 -4 17 -3 17 1 0 4 83 5 186 2 102
-3 193 -2 202 1 9 4 25 2 35 -3 12 -6 23 -6 30 1 8 6 18 6 27 1 7 -4 24 -4 36
0 14 6 26 5 29 0 3 -6 15 -6 29 0 13 5 26 7 29 4 8 -8 252 -8 265 0 7 4 12 4
12 -1 0 -10 132 -9 148 1 7 4 12 4 12 -1 0 -10 461 -10 478 1 6 4 12 3 12 -2
0 -12 32 -12 48 1 7 6 12 6 12 0 0 -13 32 -13 48 0 8 6 12 6 12 -1 0 -9 23
-10 55 -2 6 1 12 1 15 0 10 -4 1830 -7 1830 -2 0 9 -1053 1052 -1063 1052 -6
0 -8 2 -5 5 6 6 -221 235 -233 235 -5 0 -9 4 -9 9 0 13 -59 71 -72 71 -6 0 -9
3 -5 6 6 6 -16 34 -27 34 -5 0 -66 59 -66 64 0 4 -111 116 -114 116 -2 0 -34
32 -72 71 -38 39 -84 85 -103 102 -52 49 -91 91 -91 100 0 4 -4 7 -10 7 -11 0
-110 101 -110 113 0 4 -4 7 -10 7 -13 0 -158 148 -152 155 3 3 1 5 -4 5 -13 0
-399 383 -396 393 1 4 -2 7 -7 7 -5 0 -233 223 -507 495 -273 273 -505 500
-515 506 -15 7 -19 6 -19 -6z m1435 -2258 c54 -8 85 -19 138 -48 28 -15 67
-35 85 -44 18 -9 35 -22 39 -30 3 -8 9 -15 14 -15 12 0 73 -42 77 -52 2 -5 10
-8 17 -8 8 0 17 -9 20 -21 4 -11 9 -18 12 -16 13 13 299 -257 368 -347 17 -22
35 -44 40 -50 26 -27 79 -120 83 -144 4 -29 -15 -72 -33 -72 -6 0 -16 -5 -23
-12 -6 -6 -22 -13 -34 -14 -36 -5 -52 -9 -63 -15 -11 -6 -68 -12 -137 -13 -27
-1 -48 -4 -48 -7 0 -10 -34 -5 -42 6 -5 7 -8 7 -8 0 0 -9 -47 -12 -75 -5 -5 1
-14 1 -20 0 -24 -6 -95 -6 -95 0 0 7 -66 3 -80 -5 -5 -3 -11 -1 -14 4 -5 7
-66 14 -133 13 -13 0 -23 3 -23 7 0 3 -17 6 -38 7 -55 2 -116 9 -127 16 -6 3
-23 6 -40 7 -44 1 -64 7 -135 39 -19 8 -35 13 -35 11 0 -4 -8 2 -60 45 -56 48
-86 76 -80 76 3 0 -6 12 -20 28 -14 15 -28 37 -31 50 -4 12 -10 22 -15 22 -5
0 -9 8 -9 18 0 10 -3 22 -7 26 -9 8 -15 41 -17 83 0 17 -4 29 -8 27 -7 -4 -3
85 6 121 2 11 7 34 11 50 10 42 59 120 97 155 37 33 142 90 168 90 9 0 20 3
24 7 3 4 20 8 37 9 17 2 32 4 34 6 5 4 143 1 180 -5z"/>
<path d="M8127 7303 c-4 -6 -22 -9 -43 -6 l-36 5 18 -26 c11 -14 25 -26 33
-26 8 0 12 -3 8 -6 -8 -8 18 -34 33 -34 6 0 10 -3 8 -7 -4 -10 210 -221 217
-215 3 3 5 -3 5 -13 0 -10 3 -15 6 -12 4 4 20 -10 35 -30 16 -20 29 -34 29
-31 0 2 347 -341 770 -763 424 -422 770 -765 770 -762 0 2 12 -9 26 -26 36
-44 214 -221 222 -222 4 0 25 -21 47 -47 22 -26 70 -74 106 -107 37 -33 67
-66 68 -72 1 -7 5 -13 9 -13 12 0 292 -281 292 -293 0 -6 2 -8 5 -5 6 5 229
-213 265 -259 11 -14 20 -23 20 -21 0 3 133 -127 296 -289 l296 -294 26 30
c15 16 43 48 62 71 19 23 43 51 54 63 22 27 93 118 123 161 24 33 51 68 68 89
6 6 32 45 59 85 26 39 52 72 58 72 6 0 9 3 5 6 -3 4 1 13 9 21 8 8 12 19 9 24
-4 5 -2 9 3 9 5 0 25 25 43 55 18 30 37 55 41 55 4 0 8 9 8 19 0 11 4 21 8 23
5 2 26 32 48 68 21 36 43 68 49 72 5 4 6 8 2 8 -5 0 -1 7 7 16 9 8 16 22 16
30 0 8 5 14 10 14 6 0 10 7 10 15 0 8 4 15 8 15 5 0 16 17 25 38 18 38 58 113
67 122 3 3 14 23 25 45 11 22 24 43 30 47 5 4 6 8 1 8 -5 0 -1 9 9 20 10 11
14 20 9 20 -5 0 -4 4 2 8 10 7 164 312 164 325 0 4 13 34 29 66 16 33 26 62
23 65 -3 4 1 6 8 6 7 0 11 3 8 6 -4 3 1 22 9 42 8 20 20 48 26 62 6 14 11 27
12 30 0 3 8 28 18 55 9 28 17 55 18 60 0 6 5 16 11 23 6 6 8 12 5 12 -4 0 2
20 13 45 11 25 20 47 20 50 0 3 0 6 1 8 0 1 2 11 4 22 2 11 18 70 35 130 17
61 33 121 35 135 2 14 4 25 5 25 2 0 9 30 15 60 2 11 7 31 10 45 3 14 8 36 10
50 7 40 15 82 22 115 4 17 8 39 9 50 2 11 6 36 9 55 3 19 6 42 6 50 0 8 4 38
9 65 5 28 11 68 13 91 2 23 7 46 11 53 4 6 3 11 -2 11 -9 0 -10 29 -1 45 7 11
12 78 12 148 0 26 3 47 6 47 3 0 6 41 6 90 0 83 -2 90 -20 90 -11 1 -681 2
-1490 3 -826 1 -1476 6 -1484 11 -8 6 -12 5 -8 0 7 -12 -333 -11 -352 0 -8 5
-12 5 -8 0 6 -11 -644 -11 -661 0 -7 4 -12 3 -12 -2 0 -10 -92 -8 -109 2 -6 4
-11 3 -11 -2 0 -10 -92 -8 -109 2 -6 4 -11 3 -11 -2 0 -10 -92 -8 -109 2 -6 4
-11 3 -11 -2 0 -9 -92 -8 -108 2 -6 3 -12 0 -15 -6 -3 -10 -7 -10 -19 -1 -8 7
-18 10 -22 6 -10 -10 -106 -10 -106 0 0 5 -6 5 -12 1 -17 -11 -108 -11 -108 0
0 5 -7 2 -17 -5 -9 -8 -19 -12 -22 -10 -18 11 -50 19 -55 14 -10 -10 -86 -9
-89 2 -2 5 -6 4 -10 -2z m1346 -546 c5 8 412 11 412 4 0 -1 41 -4 90 -6 50 -2
90 -5 90 -5 0 -2 33 -5 134 -14 36 -4 67 -9 70 -14 3 -4 20 -8 36 -8 46 -2 87
-10 120 -24 17 -7 32 -14 35 -14 12 -2 87 -52 114 -76 48 -42 76 -75 76 -90 0
-5 5 -10 10 -10 6 0 10 -7 10 -15 0 -8 5 -15 11 -15 5 0 7 -4 4 -10 -3 -5 -1
-10 6 -10 7 0 9 -3 6 -6 -3 -4 -2 -15 4 -26 12 -23 20 -51 24 -93 2 -16 4 -32
5 -35 2 -5 -1 -53 -4 -90 -1 -9 -6 -21 -10 -28 -4 -7 -5 -16 -2 -19 3 -3 0
-15 -6 -27 -7 -11 -13 -23 -13 -26 -8 -31 -33 -67 -75 -110 -27 -27 -50 -47
-50 -44 0 4 -9 -1 -19 -10 -23 -21 -129 -56 -191 -63 -77 -9 -210 -5 -210 7 0
3 -11 7 -24 8 -42 3 -201 84 -189 96 3 3 0 6 -8 6 -8 0 -30 13 -49 30 -19 16
-40 29 -45 30 -6 0 -18 8 -26 18 -9 9 -35 33 -58 52 -23 19 -70 61 -104 92
-34 32 -65 58 -69 58 -5 0 -8 7 -8 15 0 8 -4 15 -9 15 -11 0 -17 6 -91 90 -30
35 -65 73 -77 86 -12 13 -20 24 -17 24 3 0 -7 12 -21 27 -14 15 -25 33 -25 40
0 7 -3 13 -8 13 -16 0 -46 92 -37 119 7 24 68 50 127 54 15 1 30 6 34 10 4 4
11 2 15 -4 4 -7 9 -7 12 -2z"/>
<path d="M1896 7283 c-2 -2 -2 -46 1 -96 3 -51 6 -118 6 -149 1 -32 4 -58 7
-58 3 0 6 -24 7 -53 3 -65 19 -222 23 -222 1 0 3 -16 5 -35 2 -19 5 -47 7 -62
1 -16 6 -28 11 -28 4 0 3 -9 -3 -19 -7 -14 -7 -22 0 -26 6 -4 8 -10 5 -15 -3
-5 -2 -11 3 -14 4 -2 7 -21 7 -40 -1 -20 2 -36 6 -36 4 0 8 -12 9 -27 2 -63 4
-83 10 -83 4 0 7 -6 8 -12 1 -12 3 -25 18 -118 3 -19 8 -42 11 -50 3 -8 7 -21
9 -29 10 -48 27 -117 32 -126 3 -5 7 -18 9 -30 3 -25 11 -59 13 -62 2 -2 3 -6
4 -10 1 -5 4 -12 7 -18 4 -5 5 -18 4 -28 -2 -9 0 -15 4 -13 4 3 13 -22 20 -55
8 -33 18 -62 22 -65 5 -3 9 -13 9 -22 0 -10 8 -34 19 -55 10 -20 14 -34 9 -31
-10 6 -7 0 28 -66 10 -19 17 -35 15 -35 -1 0 3 -13 10 -30 7 -16 13 -34 15
-40 1 -5 20 -49 43 -97 23 -48 41 -92 41 -98 0 -5 5 -10 10 -10 6 0 10 -9 10
-20 0 -11 5 -20 10 -20 6 0 10 -7 10 -16 0 -9 8 -28 19 -42 10 -15 22 -37 25
-49 4 -13 12 -23 17 -23 5 0 9 -9 9 -19 0 -11 7 -26 15 -34 8 -8 11 -17 8 -21
-4 -3 -2 -6 3 -6 6 0 21 -22 35 -50 13 -27 28 -50 32 -50 5 0 5 -4 2 -10 -3
-5 -1 -10 4 -10 6 0 11 -7 11 -15 0 -8 5 -15 10 -15 6 0 10 -5 10 -11 0 -6 14
-31 30 -56 17 -24 30 -48 30 -54 0 -5 5 -9 10 -9 6 0 10 -7 10 -15 0 -8 5 -15
10 -15 6 0 10 -7 10 -15 0 -8 5 -15 10 -15 6 0 10 -5 10 -10 0 -12 41 -73 53
-78 4 -2 7 -10 7 -17 0 -8 9 -20 20 -28 11 -8 17 -17 13 -20 -3 -4 -1 -7 6 -7
7 0 9 -4 6 -10 -3 -5 -2 -10 2 -10 5 0 19 -18 33 -40 14 -22 28 -40 32 -40 5
0 8 -6 8 -14 0 -8 3 -16 8 -18 4 -1 29 -32 55 -68 26 -36 53 -72 60 -80 7 -8
31 -37 53 -65 21 -27 48 -58 58 -68 10 -9 16 -17 13 -17 -4 0 1 -8 11 -19 9
-10 35 -39 57 -65 22 -26 55 -64 73 -84 19 -20 48 -54 65 -74 l30 -37 24 22
c96 89 163 158 163 167 0 5 3 9 8 8 4 -2 177 167 385 375 208 207 382 377 387
377 6 0 10 5 10 10 0 14 57 69 64 62 3 -3 6 0 6 6 0 10 94 107 150 155 14 12
27 25 28 30 1 4 4 7 7 7 5 1 72 69 77 79 2 3 40 41 84 83 45 43 79 79 77 82
-3 2 5 7 16 11 12 3 21 13 21 21 0 8 3 13 8 11 4 -2 15 4 25 15 9 10 14 18 10
18 -4 0 7 11 25 23 17 13 29 27 25 30 -3 4 1 7 10 7 8 0 19 9 22 20 4 11 9 19
13 17 10 -5 42 30 34 37 -3 3 2 6 11 6 8 0 19 9 22 21 4 11 9 19 11 16 2 -2
268 258 589 578 322 320 587 579 590 577 3 -3 5 -1 5 5 0 9 87 103 96 103 1 0
14 11 28 25 14 14 23 25 21 25 -2 0 11 15 28 33 18 18 34 31 36 30 5 -3 51 49
51 59 0 5 5 6 10 3 6 -3 10 2 10 11 0 10 2 15 5 12 7 -7 275 262 275 275 0 6
3 8 6 5 6 -7 54 39 54 51 0 4 -339 8 -754 8 -415 0 -759 4 -764 7 -6 3 -13 3
-16 -2 -5 -9 -47 -9 -63 1 -7 4 -14 4 -17 -1 -5 -9 -47 -9 -63 1 -7 4 -14 4
-17 -1 -5 -9 -47 -9 -62 0 -5 3 -18 2 -28 -2 -11 -3 -37 -4 -57 0 -21 4 -42 4
-46 0 -4 -4 -31 -5 -59 -1 -28 4 -62 4 -76 0 -14 -4 -31 -3 -38 1 -7 4 -28 4
-48 -1 -20 -4 -40 -5 -46 -2 -11 7 -112 7 -124 -1 -4 -2 -14 -1 -21 3 -7 5
-29 5 -49 0 -21 -4 -43 -4 -54 2 -12 7 -18 6 -18 -1 0 -6 -5 -8 -11 -5 -15 10
-59 13 -59 5 0 -4 -15 -5 -32 -3 -58 8 -83 9 -109 2 -15 -4 -32 -3 -40 1 -7 5
-21 4 -31 -1 -12 -6 -18 -6 -18 0 0 7 -8 7 -24 1 -13 -5 -26 -6 -29 -4 -9 9
-70 10 -99 3 -15 -4 -30 -4 -33 1 -3 5 -16 5 -30 0 -16 -6 -27 -6 -31 1 -4 7
-10 7 -18 0 -7 -6 -16 -8 -19 -5 -5 6 -80 7 -120 2 -7 -1 -25 2 -40 6 -15 3
-27 3 -27 -2 0 -7 -33 -8 -50 -2 -12 5 -100 2 -114 -3 -8 -3 -18 -2 -21 2 -3
5 -21 5 -40 1 -19 -4 -35 -4 -35 1 0 5 -11 4 -24 -1 -13 -5 -26 -6 -29 -3 -9
8 -108 9 -113 1 -3 -5 -13 -5 -22 0 -21 9 -43 9 -59 -1 -7 -5 -13 -4 -13 0 0
10 -104 8 -120 -2 -5 -3 -10 -1 -10 6 0 10 -3 10 -12 1 -6 -6 -18 -8 -27 -4
-20 9 -42 9 -58 -1 -7 -5 -13 -4 -13 0 0 10 -104 8 -120 -2 -5 -3 -10 -3 -10
2 0 4 -49 8 -110 8 -67 0 -110 -4 -110 -10 0 -7 -3 -7 -8 0 -4 6 -55 10 -117
10 -62 0 -113 -4 -117 -10 -5 -7 -8 -7 -8 0 0 6 -29 10 -65 10 -36 0 -65 -3
-65 -8 0 -4 -6 -5 -12 -1 -17 11 -178 12 -184 2 -3 -5 -10 -6 -16 -2 -11 7
-106 13 -112 7z m3322 -466 c26 2 57 5 70 7 12 2 22 0 22 -4 0 -11 44 -7 52 5
5 7 8 6 8 0 0 -7 25 -11 60 -10 33 0 60 -3 60 -7 0 -3 14 -5 31 -4 16 1 32 0
34 -4 2 -3 18 -7 36 -8 18 -1 38 -7 45 -13 7 -6 18 -8 24 -4 5 3 10 0 10 -8 0
-8 8 -17 18 -19 14 -4 18 -14 17 -39 0 -19 -3 -38 -6 -44 -3 -5 -11 -29 -19
-52 -7 -24 -17 -43 -22 -43 -4 0 -8 -6 -8 -14 0 -7 -7 -19 -15 -26 -8 -6 -13
-15 -12 -19 2 -6 -10 -23 -45 -62 -10 -10 -15 -19 -10 -19 4 -1 -4 -10 -17
-20 -13 -11 -20 -20 -17 -20 10 0 -173 -181 -228 -225 -27 -22 -55 -46 -62
-52 -7 -7 -17 -13 -21 -13 -5 0 -18 -8 -29 -18 -26 -24 -139 -92 -153 -92 -6
0 -11 -4 -11 -9 0 -9 -40 -27 -49 -22 -2 2 -7 -2 -11 -9 -4 -6 -17 -12 -28
-13 -12 -1 -22 -4 -22 -8 0 -5 -61 -21 -135 -34 -11 -2 -22 -4 -25 -5 -27 -10
-171 3 -210 18 -14 5 -29 10 -35 12 -23 4 -75 33 -75 41 0 5 -6 9 -14 9 -13 0
-36 21 -87 80 -28 33 -60 96 -52 104 3 3 0 14 -9 23 -8 10 -14 25 -13 33 1 8
-3 23 -7 33 -6 11 -5 17 3 17 8 0 9 4 0 13 -6 8 -8 16 -5 20 3 3 7 17 10 31 2
14 5 37 7 51 2 13 10 31 17 40 7 8 9 15 6 15 -8 0 23 58 42 78 6 7 12 17 12
21 0 12 117 131 129 131 6 0 11 4 11 9 0 12 108 67 150 77 49 11 50 11 53 14
3 2 37 10 72 15 51 8 75 14 85 20 6 3 10 0 10 -7 0 -8 3 -9 8 -3 4 6 16 11 27
12 11 1 52 5 90 9 39 4 94 7 122 8 29 1 53 6 54 11 0 6 3 5 5 -1 3 -7 24 -9
52 -7z"/>
<path d="M7074 6781 c-99 -98 -207 -208 -241 -242 -35 -35 -68 -69 -75 -75 -7
-7 -39 -39 -71 -73 -32 -34 -63 -61 -68 -61 -5 0 -9 -4 -9 -9 0 -13 -56 -71
-69 -71 -6 0 -11 -4 -11 -9 0 -5 -256 -267 -570 -582 -313 -315 -570 -577
-570 -582 0 -6 -3 -7 -7 -4 -3 4 -15 -5 -25 -20 -10 -16 -18 -25 -18 -21 0 4
-29 -24 -64 -61 -36 -38 -67 -66 -70 -63 -3 3 -6 1 -6 -4 0 -13 -57 -74 -63
-68 -3 3 -8 -4 -12 -15 -3 -12 -13 -21 -21 -21 -8 0 -12 -4 -9 -10 3 -5 -1
-10 -9 -10 -9 0 -16 -7 -16 -16 0 -8 -4 -12 -10 -9 -5 3 -10 2 -10 -3 0 -12
-198 -212 -210 -212 -6 0 -10 -4 -10 -10 0 -5 -210 -221 -467 -480 -258 -258
-474 -476 -480 -483 -7 -6 -49 -48 -93 -92 -72 -72 -94 -105 -72 -105 4 0 36
-27 72 -60 36 -32 71 -59 78 -60 6 0 12 -5 12 -10 0 -6 11 -16 25 -22 14 -6
25 -17 25 -25 0 -7 7 -13 15 -13 9 0 18 -7 21 -15 4 -8 10 -15 15 -15 9 0 181
-126 219 -161 14 -13 27 -22 28 -20 2 2 15 -6 28 -18 13 -11 24 -18 24 -15 0
6 74 -48 78 -58 2 -5 8 -8 13 -8 11 0 153 -91 157 -102 2 -4 8 -6 13 -2 5 3 9
0 9 -5 0 -6 7 -11 15 -11 8 0 15 -4 15 -10 0 -5 9 -10 20 -10 11 0 20 -4 20
-10 0 -5 7 -10 15 -10 8 0 15 -4 15 -10 0 -5 4 -10 9 -10 5 0 39 -18 75 -40
36 -22 70 -40 75 -40 5 0 11 -3 13 -7 2 -5 26 -19 53 -33 28 -13 52 -27 55
-30 3 -3 19 -12 35 -20 17 -8 56 -29 88 -47 31 -18 57 -29 57 -25 0 4 6 0 13
-8 7 -8 17 -16 24 -17 11 -3 144 -64 265 -123 32 -15 55 -23 52 -18 -4 6 4 3
17 -5 13 -8 58 -27 99 -42 84 -31 118 -44 140 -55 8 -4 23 -6 33 -4 9 1 17 -2
17 -7 0 -6 5 -7 10 -4 6 3 10 2 10 -3 0 -5 6 -9 13 -9 6 0 60 -14 118 -31 58
-18 114 -33 125 -35 10 -1 25 -6 32 -10 6 -5 12 -6 12 -3 0 2 15 0 33 -5 17
-6 44 -12 59 -14 15 -2 44 -8 65 -14 38 -10 84 -18 158 -27 22 -3 47 -8 55
-11 8 -3 29 -7 45 -9 17 -1 50 -5 75 -8 77 -9 161 -17 219 -21 31 -2 56 -4 56
-5 0 -7 67 -5 71 2 3 5 11 5 17 0 19 -15 293 -9 290 6 -2 6 0 12 5 12 11 0 9
84 -3 92 -6 5 -5 8 4 8 10 0 11 3 2 13 -6 8 -8 17 -4 20 10 11 9 111 -2 119
-6 5 -6 8 2 8 9 0 10 7 3 25 -5 14 -6 25 -1 25 9 0 7 63 -3 79 -4 6 -3 11 1
11 5 0 8 20 9 45 0 25 -4 45 -9 45 -4 0 -5 6 -1 12 12 19 11 138 -1 138 -6 0
-5 4 1 8 12 7 12 72 0 90 -3 6 -3 13 1 15 11 7 9 229 -1 246 -6 9 -5 12 1 8
13 -8 11 102 -2 122 -5 8 -4 12 1 8 11 -7 12 263 1 280 -4 6 -4 14 1 17 11 7
9 77 -2 95 -7 10 -6 12 3 6 9 -5 11 1 8 24 -3 20 -1 31 6 31 8 0 8 3 2 8 -6 4
-10 51 -10 110 1 57 -3 106 -7 108 -5 3 -5 11 0 17 5 7 9 134 8 284 -1 159 3
269 8 266 5 -4 5 0 0 8 -13 21 -14 39 -1 39 8 0 8 3 2 8 -12 8 -14 302 -2 302
5 0 5 5 2 10 -7 12 -12 450 -5 450 3 0 5 106 5 235 0 129 -4 235 -8 235 -5 0
-5 5 -2 10 5 8 14 1300 9 1300 -1 0 -82 -81 -180 -179z m-316 -1036 c9 -16 21
-33 25 -36 5 -3 8 -9 7 -13 -1 -3 3 -30 9 -59 5 -28 13 -74 17 -102 8 -59 11
-415 4 -415 -3 0 -6 -19 -6 -42 -2 -70 -7 -132 -13 -143 -3 -5 -6 -23 -7 -40
-2 -38 -11 -94 -30 -180 -10 -45 -55 -145 -66 -145 -5 0 -7 -4 -4 -8 3 -5 -13
-29 -34 -53 -22 -24 -40 -48 -40 -52 0 -5 -4 -6 -9 -3 -5 3 -11 0 -14 -8 -5
-13 -107 -80 -107 -70 0 3 -7 -2 -16 -10 -8 -9 -20 -14 -25 -11 -5 4 -9 2 -9
-3 0 -6 -9 -8 -20 -5 -11 3 -20 1 -20 -3 0 -5 -15 -9 -32 -8 -18 0 -43 -3 -55
-8 -13 -4 -23 -4 -23 0 0 4 -17 7 -38 7 -36 -1 -95 15 -108 28 -4 4 -16 7 -26
7 -10 0 -18 5 -18 10 0 6 -7 10 -15 10 -8 0 -15 5 -15 10 0 6 -5 10 -11 10
-16 0 -65 55 -81 90 -7 17 -16 30 -20 30 -3 0 -16 30 -29 68 -17 53 -22 90
-22 177 0 61 3 119 6 130 3 11 8 34 12 50 5 17 14 42 22 57 7 15 12 30 11 34
-2 3 5 10 15 15 9 6 17 17 17 24 0 8 5 15 11 15 5 0 8 4 5 9 -4 5 -3 11 1 13
5 1 24 26 43 53 19 28 39 55 45 61 29 32 45 55 45 64 0 6 4 10 9 10 5 0 19 16
32 35 13 19 30 35 38 35 8 0 12 3 8 6 -3 3 17 29 44 57 27 28 49 55 49 59 0 5
3 7 8 5 4 -2 15 4 25 15 9 10 14 18 11 18 -4 0 6 10 22 22 16 12 38 32 49 44
11 11 38 34 60 50 21 16 47 36 56 44 38 33 49 40 49 33 0 -4 4 -3 8 4 12 19
74 43 105 40 20 -1 34 -11 45 -32z"/>
<path d="M7735 6920 c3 -5 1 -10 -5 -10 -6 0 -8 -5 -4 -11 4 -7 7 -417 8 -913
1 -518 5 -907 10 -915 6 -9 5 -12 -2 -8 -13 9 -11 -211 2 -232 6 -9 5 -12 -2
-8 -13 9 -11 -211 2 -232 6 -9 5 -12 0 -8 -6 3 -10 -251 -9 -683 0 -408 4
-686 9 -682 5 3 5 -1 0 -9 -12 -19 -12 -239 0 -232 5 4 5 0 0 -8 -12 -19 -12
-239 0 -232 5 4 5 0 0 -8 -5 -8 -10 -25 -12 -37 -2 -17 1 -22 10 -16 10 6 10
4 3 -7 -12 -15 -13 -228 -2 -247 4 -6 4 -13 0 -15 -11 -7 -8 -210 2 -227 5 -7
4 -11 -1 -7 -5 3 -9 -49 -9 -127 l0 -132 80 2 c44 1 80 3 80 4 0 2 14 4 30 5
17 2 30 4 30 5 0 0 27 3 60 6 57 4 100 11 100 14 0 2 16 4 95 14 35 4 66 9
128 20 106 19 127 24 127 26 0 1 11 4 25 6 14 2 39 6 55 9 17 3 36 7 43 7 6 1
12 4 12 7 0 3 10 6 23 7 19 1 41 5 97 19 8 2 15 4 15 5 0 2 43 10 68 12 9 1
17 5 17 8 0 3 8 6 18 7 18 1 57 10 57 13 0 2 14 5 52 14 12 2 31 9 42 15 14 8
21 8 24 -2 4 -9 6 -9 6 1 1 7 6 10 11 7 6 -3 10 -2 10 3 0 5 6 9 13 9 6 0 39
9 72 19 33 10 62 19 65 19 3 1 12 4 20 8 24 9 120 39 133 41 7 1 22 7 33 14
12 6 24 8 28 5 3 -3 6 0 6 7 0 7 3 11 6 8 5 -5 85 21 159 53 17 7 36 11 43 10
6 -1 12 3 12 10 0 6 7 9 15 5 8 -3 15 -1 15 5 0 6 5 7 10 4 6 -3 10 -1 10 4 0
6 9 11 20 11 11 0 20 4 20 8 0 4 10 8 22 9 11 1 24 7 28 13 4 7 11 12 16 11 5
0 29 10 54 21 25 12 49 20 54 19 5 -1 12 2 15 6 3 5 31 19 61 33 30 14 58 29
61 33 3 5 9 8 13 8 8 -1 80 33 86 40 3 4 24 15 48 25 23 10 42 22 42 27 0 4 5
5 10 2 6 -3 10 -1 10 4 0 6 5 11 11 11 6 0 38 16 70 36 32 19 61 34 65 34 4
-1 10 3 13 8 3 6 12 12 20 14 8 2 25 13 39 26 14 12 29 22 34 22 11 0 72 42
76 53 2 4 8 5 13 1 5 -3 12 2 15 10 3 9 10 13 15 10 5 -3 9 0 9 5 0 6 7 11 15
11 8 0 15 4 15 8 0 5 18 18 40 31 22 12 40 27 40 33 0 6 3 9 6 5 5 -4 97 60
159 111 6 4 25 19 44 32 19 14 50 40 70 57 20 18 41 33 48 33 6 0 15 9 18 21
4 11 9 18 12 15 3 -3 17 6 32 19 14 14 52 49 84 79 32 30 63 56 70 59 6 2
-321 335 -726 741 -405 406 -737 742 -737 747 0 5 -4 9 -8 9 -13 0 -201 188
-194 194 3 3 0 6 -6 6 -12 0 -362 349 -362 362 0 4 -5 8 -10 8 -11 0 -76 63
-122 119 -16 18 -28 30 -28 28 0 -3 -50 45 -112 106 -62 62 -111 115 -110 120
1 4 -2 7 -6 7 -12 0 -240 229 -234 235 3 3 -2 5 -11 5 -9 0 -17 3 -17 8 0 7
-26 34 -82 87 -16 14 -28 30 -28 35 0 6 -4 10 -10 10 -11 0 -60 47 -54 53 2 2
-7 10 -21 17 -13 7 -27 21 -31 32 -3 10 -9 18 -14 18 -12 0 -80 70 -80 83 0 6
-2 8 -5 5 -3 -3 -41 31 -85 76 -119 122 -134 136 -142 136 -5 0 -8 8 -8 17 0
9 -2 14 -5 11 -6 -6 -125 112 -125 124 0 4 -4 8 -9 8 -10 0 -81 66 -81 75 0 8
-64 64 -73 65 -5 0 -5 -4 -2 -10z m415 -1166 c0 5 6 3 13 -3 8 -6 17 -8 20 -4
4 3 7 1 7 -5 0 -7 5 -12 10 -12 16 0 107 -69 175 -133 33 -31 63 -57 68 -57 4
0 7 -4 7 -8 0 -5 24 -34 53 -65 28 -30 68 -74 87 -97 19 -23 45 -52 58 -66 13
-13 20 -24 17 -24 -5 0 -1 -6 30 -43 6 -7 22 -28 35 -47 13 -19 29 -38 35 -42
6 -5 6 -8 0 -8 -6 0 -6 -3 0 -8 13 -9 46 -60 43 -66 -2 -2 6 -13 16 -25 11
-12 15 -21 10 -21 -5 0 -3 -4 3 -8 17 -10 61 -122 57 -145 -1 -9 1 -17 6 -17
15 0 11 -174 -6 -230 -9 -30 -16 -63 -17 -72 -1 -9 -3 -15 -6 -13 -2 3 -13
-13 -23 -35 -22 -44 -126 -152 -139 -144 -5 3 -9 2 -9 -3 0 -9 -33 -24 -95
-45 -56 -19 -212 -11 -235 12 -3 3 -27 16 -54 30 -27 13 -68 41 -90 62 -23 21
-44 38 -48 38 -5 0 -8 4 -8 9 0 6 -14 25 -30 43 -17 18 -36 45 -43 61 -6 15
-15 27 -18 27 -6 0 -11 12 -24 63 -2 4 -4 9 -5 12 -1 3 -4 10 -5 15 -1 6 -3
11 -4 13 -2 1 -4 13 -7 27 -2 14 -7 41 -10 60 -10 47 -13 74 -17 151 -3 37 -8
72 -11 78 -4 6 -2 11 4 11 7 0 8 5 3 13 -10 16 -11 29 -2 48 5 9 5 20 1 24
-11 11 -9 139 3 147 7 5 6 8 -1 8 -6 0 -10 12 -8 28 3 15 6 65 9 112 2 47 9
100 14 118 7 22 6 32 -1 32 -7 0 -7 4 0 13 6 7 12 24 14 37 2 14 6 30 9 35 4
6 5 20 4 32 -1 12 5 25 12 28 8 2 11 9 8 15 -3 5 -1 10 4 10 6 0 11 6 11 13 0
18 53 37 62 23 4 -6 8 -7 8 -2z"/>
</g>
</svg>
